# xmcd
#
# Track frame offsets:
#	150
#	11458
#	29597
#	43777
#	59228
#	71615
#	88848
#	102261
#	114203
#	132813
#
# Disc length: 1910 seconds
#
# Revision: 1
# Processed by: cddbd v1.5.2PL0 Copyright (c) Steve Scherf et al.
# Submitted via: audiograbber 1.83.01
#
DISCID=8807740a
DTITLE=Phil Kennedy - I Get The Picture
DYEAR=1900
DGENRE=Country
TTITLE0=Shine Your Light
TTITLE1=Sober As A Judge
TTITLE2=You Ain't The Only One
TTITLE3=I Get The Picture
TTITLE4=She Ain't Got Jack
TTITLE5=Step Up To My Bed
TTITLE6=How Do You Love
TTITLE7=E-mail From A Female
TTITLE8=Friends For Now
TTITLE9=Red Boots
EXTD=
EXTT0=
EXTT1=
EXTT2=
EXTT3=
EXTT4=
EXTT5=
EXTT6=
EXTT7=
EXTT8=
EXTT9=
PLAYORDER=
